<svg id="Layer_1" data-name="Layer 1" xmlns="http://www.w3.org/2000/svg" xmlns:xlink="http://www.w3.org/1999/xlink" viewBox="0 0 151.29 121.11"><defs><style>.cls-1{fill:none;stroke:#1d1d1b;stroke-miterlimit:10;}.cls-2,.cls-4{fill:#1d1d1b;}.cls-3{opacity:0.5;}.cls-4{font-size:12px;font-family:MyriadPro-Regular, Myriad Pro;}</style><image id="image" width="10" height="20" xlink:href="../Screencaps/processing/bufferscale2.png"/><image id="image-2" width="10" height="20" xlink:href="../Screencaps/processing/bufferscale4.png"/></defs><image width="81" height="161" transform="translate(29.2) scale(0.75)" xlink:href="../Screencaps/processing/cropped%20and%20grayscaled.png"/><line class="cls-1" x1="95.2" y1="110.5" x2="113.16" y2="110.5"/><path class="cls-2" d="M231,415.5a30.1,30.1,0,0,0-8.55,4.76l1.72-4.76-1.72-4.75A30.31,30.31,0,0,0,231,415.5Z" transform="translate(-111.8 -305)"/><line class="cls-1" y1="61.33" x2="18.19" y2="61.33"/><path class="cls-2" d="M136,366.33a30.15,30.15,0,0,0-8.54,4.76l1.72-4.76-1.72-4.75A30.12,30.12,0,0,0,136,366.33Z" transform="translate(-111.8 -305)"/><use transform="translate(124.2 99) scale(1.11)" xlink:href="#image"/><use transform="translate(124.2 49) scale(1.11)" xlink:href="#image"/><image width="10" height="20" transform="translate(124.2 74) scale(1.11)" xlink:href="../Screencaps/processing/bufferscale1.png"/><use transform="translate(124.2 24) scale(1.11)" xlink:href="#image-2"/><use class="cls-3" transform="translate(124.2) scale(1.11)" xlink:href="#image-2"/><text class="cls-4" transform="translate(138.28 27.23)">} 0</text><text class="cls-4" transform="translate(138.58 51.34)">} 2</text><text class="cls-4" transform="translate(138.88 77.33)">} 2</text><text class="cls-4" transform="translate(139.18 102.66)">} 1</text></svg>